PathFileType	4	(X/Y/Z)	36_2_rein_81_p1_0-286.trc
DataRate	CameraRate	NumFrames	NumMarkers	Units	OrigDataRate	OrigDataStartFrame	OrigNumFrames
44.0	44.0	7	27	m	44.0	251	287
Frame#	Time	RHip			RKnee			RAnkle			RBigToe			RSmallToe			RHeel			LHip			LKnee			LAnkle			LBigToe			LSmallToe			LHeel			Neck			Head			Nose			RShoulder			RElbow			RWrist			RThumb			RIndex			RPinky			LShoulder			LElbow			LWrist			LThumb			LIndex			LPinky			
		X1	Y1	Z1	X2	Y2	Z2	X3	Y3	Z3	X4	Y4	Z4	X5	Y5	Z5	X6	Y6	Z6	X7	Y7	Z7	X8	Y8	Z8	X9	Y9	Z9	X10	Y10	Z10	X11	Y11	Z11	X12	Y12	Z12	X13	Y13	Z13	X14	Y14	Z14	X15	Y15	Z15	X16	Y16	Z16	X17	Y17	Z17	X18	Y18	Z18	X19	Y19	Z19	X20	Y20	Z20	X21	Y21	Z21	X22	Y22	Z22	X23	Y23	Z23	X24	Y24	Z24	X25	Y25	Z25	X26	Y26	Z26	X27	Y27	Z27	
251	5.704545454545454	0.3131026950609868	0.6068177346358111	-0.14089084044435268	0.3488667383013206	0.6051737049212192	0.2750425819045359	0.3843321432797291	0.7216744065632905	0.7127146332776219	0.33048112519753675	0.5179366003981749	0.7479177577785668	0.40620476608352046	0.5187196747343714	0.7325560201489993	0.3589731492824123	0.8271881074541518	0.7827377987430634	0.11135932475844525	0.5638523538819586	-0.1510144420591514	0.15343720853310175	0.6061556298473199	0.30041738529997675	0.18816352291911226	0.7159575983959512	0.7215262046596554	0.19131009868386079	0.5188402535078719	0.74840833347336	0.1420018629567372	0.5640654159313085	0.7660285520740687	0.20970821355247984	0.7990619119123523	0.7996827005819899	0.26836452306667563	0.4240960532526198	-0.6740152088347846	0.37539350245120395	0.23101849072505362	-0.9162480196970438	0.36074313953219367	0.21734497631856892	-0.7606658175539878	0.4154636915653852	0.47961665383243185	-0.6252076638569785	0.5009132597132535	0.4193178496801609	-0.3781536613767807	0.4091958889731968	0.27221761847052217	-0.5549351450301696	0.34278695216016963	0.2362542598349597	-0.6774900294276174	0.37300485029011543	0.20976818346116663	-0.6982643389861142	0.3754657096576295	0.2140694987490942	-0.6288740151739158	0.09229712964961594	0.4375687186512709	-0.6682324882742886	0.005364861344017377	0.4844399227270937	-0.39679450648888365	0.02752022017427446	0.49514978561947975	-0.11988897593279625	0.06105102822476885	0.493470315683188	-0.02186506409434281	0.04735930467503283	0.4933724254390421	0.0033623170609630884	0.006637460955055899	0.5123718883074493	-0.007265810487586477
252	5.7272727272727275	0.3129994296294638	0.6066405447484834	-0.14088892169746833	0.34844337507582146	0.605888193048062	0.27950508914113753	0.3829397690810769	0.719679981706602	0.7074252562060769	0.3303283929605491	0.520142528686396	0.7439017007588333	0.40662183751391834	0.519809642731793	0.7325135221779543	0.35895806279092274	0.8274305801938121	0.7827308185781536	0.11539402763701674	0.5485143673434886	-0.1584117366592824	0.15339980856762217	0.605897303497582	0.3001978671150366	0.1869654874552045	0.713796314566266	0.7165574375430876	0.19644576931402394	0.5209543185895634	0.7486927840807787	0.14213080458426433	0.5638711196973609	0.7658654508667634	0.20958907960710652	0.7993170717536326	0.80024087161969	0.263721629416146	0.4113263513444049	-0.679749326724196	0.37471956512524535	0.22962853605132047	-0.9192499611248255	0.3575633100487417	0.22842613644068532	-0.7604639347920866	0.4197170581142323	0.4805974599833152	-0.6258171097535162	0.5016383295783169	0.42905889231317923	-0.36957067339929844	0.4142481133956224	0.2763948256212059	-0.540657954031141	0.33449502030106393	0.22342210712981672	-0.6731295196838482	0.3629081825085527	0.22270780090575562	-0.6932070071758938	0.36998084630263456	0.21810775586218872	-0.6212065410330159	0.09234345826958443	0.4377796193945322	-0.668257372153596	0.0033296901249249083	0.47430254434496	-0.3936203366991687	0.02761773264290943	0.49521463905506113	-0.11973543149334864	0.06584921475437348	0.49363674610969843	-0.02227518286951249	0.04848676272095991	0.4949337735904754	0.01151555446862326	0.0089676756510796	0.525532603161124	-0.004639984294722745
253	5.75	0.31322445995806764	0.6065296455815314	-0.140791467452792	0.34836202597805793	0.6054682559600868	0.2796575493754123	0.3843457280517839	0.7216699842291021	0.7126467298822865	0.33088454066453515	0.5185146796856239	0.7478336962042351	0.40663701868221785	0.5191359304051137	0.7322151632580107	0.3590052587463038	0.8274065473048435	0.7826364772869057	0.11940342006240252	0.5613015413188054	-0.145620652899023	0.15382814780485612	0.6054772984944983	0.3044992483031784	0.18827819886420794	0.7160610740133951	0.7216889417146845	0.19648933990366202	0.5207437349538135	0.7486688495055507	0.14209563638794992	0.5639348951727231	0.7659372494387776	0.20944395475983435	0.7993646092616054	0.800782331156671	0.2637366053900636	0.41105416794241645	-0.6795717906724509	0.36300601423058554	0.24041738881917915	-0.9191604391394039	0.35291389683422725	0.22703533934471612	-0.7632965906848608	0.4098585719358885	0.47837719996048206	-0.6318867131497046	0.4967119648089766	0.418170643563888	-0.37346759280490355	0.40069940779032	0.28651220096076474	-0.5216114103894638	0.316315085332699	0.23120289620017098	-0.6475668259224087	0.3528784636267361	0.2118872917547483	-0.6822631518865734	0.357815033430462	0.20510780834604522	-0.6114334196547537	0.09236244341431411	0.43781796249217986	-0.6682892114147192	0.005312261507753456	0.4846191135980882	-0.39663460394534067	0.027690942234992428	0.49517882499883553	-0.11981191565597454	0.07069928626303901	0.479509983414825	-0.02601092879597474	0.053465390668729545	0.4949143496704903	0.006881956007589651	0.013896809010449065	0.5135900912550659	-0.004844792595322306
254	5.7727272727272725	0.3132391973292837	0.6066563665790752	-0.13708508568467218	0.3480872985953693	0.6048486979667028	0.2793578806131286	0.3843323956297484	0.7216540882494976	0.7125480088495598	0.33080298644783745	0.5183897660023542	0.7478458083852373	0.40651253713240443	0.5188802174568562	0.7322541017460908	0.35900826456343254	0.827397062248549	0.7824926166457723	0.11662971048150368	0.5476358945966289	-0.14734229540580052	0.15380365455011227	0.6052081298391964	0.30444808169295684	0.1882442138811367	0.7162298219459764	0.7217748723434546	0.19654291858506553	0.5207557352072065	0.7487553692712146	0.14214528505916832	0.5641573324977546	0.766086715811453	0.209453599302584	0.800180678820156	0.8015168136923219	0.25984052166671373	0.3995921777402772	-0.6825687065259143	0.3582333110178979	0.22710809526278164	-0.9139837804589511	0.34712643132172083	0.20716000437881849	-0.7560462216955225	0.4098090328411315	0.47809740252362604	-0.6358081591485065	0.4981040038831878	0.4430390161767274	-0.37081284618653915	0.39783884746700987	0.28648802074813784	-0.5142461376186684	0.3189944575717216	0.21277632245505287	-0.6243816897063718	0.3517226509377849	0.2020959186694383	-0.6619200306252453	0.35934438557359677	0.2042513376811256	-0.6010601714663515	0.09242809509117139	0.43776994530495494	-0.6650512811698673	0.003368458991756131	0.4743433770574193	-0.39355035982430947	0.027746239207106522	0.4952166026531738	-0.11967152153506933	0.07085889850454093	0.4791531003826488	-0.02604807405492061	0.05352358898420711	0.4949664075083557	0.0070225896922886805	0.013798487076302142	0.513318620353757	-0.00470477493688316
255	5.795454545454546	0.31830068698744535	0.6070980016724375	-0.13735128248749298	0.34821458740402256	0.6050793435167672	0.2795648301454058	0.384303478327097	0.7216146149337895	0.7126470639461985	0.33063744976704346	0.5176586169062184	0.747664801808975	0.4063107754943719	0.5183873326061668	0.7323054634188783	0.3589542576848008	0.8272646834121005	0.782583300827887	0.11656998056365743	0.5479588163577294	-0.14733463423987903	0.15883858162006165	0.5906802178021855	0.2992517479343308	0.18846804406337447	0.7161731617348353	0.7216986240387687	0.196598827717185	0.5209035977173828	0.7488401891865334	0.14216373736950613	0.5640949257522758	0.7660801428908555	0.20961533248415232	0.8004316954027499	0.8015506139559921	0.25957854109393474	0.39969073773862	-0.682749660746748	0.3509502090562076	0.23864625839851739	-0.9177442586390081	0.3499973113194336	0.2395507542468985	-0.7600978118483487	0.4139080570394309	0.478139992538925	-0.6363196343632607	0.498104104421194	0.4436942028817989	-0.3706724687087113	0.39074542760900793	0.29818522446417256	-0.5090235363944811	0.31576192962423155	0.22221078808582637	-0.6033359254020637	0.3490966095688999	0.20173741174658513	-0.6176206887837217	0.3582545459405729	0.20327717774163379	-0.5692418717945408	0.09219500413245096	0.4380007329811594	-0.6683637971417941	0.0010555609005367809	0.49861770361765406	-0.391200266233448	0.02789251923169254	0.49530001428312714	-0.11959947488651985	0.07094241936199665	0.47895129610004383	-0.02332889709035666	0.049880396540253946	0.49579707842497417	0.015712304533673508	0.01443788091929235	0.5145499540007837	-0.00011059716307127327
256	5.818181818181818	0.31692321476220237	0.6057229027449723	-0.15336344259218698	0.3482938123672472	0.6049990354002934	0.2790060636934626	0.384327319312164	0.7217114012119354	0.7126727259491611	0.3304778004003816	0.5178137049753595	0.747908956082498	0.40625368506640824	0.5184783452567799	0.7324851313273913	0.3589275645499825	0.8274475787504898	0.7827233901014573	0.11458073899200037	0.5745838879977295	-0.14610819843117334	0.1537994431385438	0.6052508694837454	0.30440293950117087	0.18734792937427067	0.714080137812198	0.7166590826200651	0.1965712267667915	0.5209853985347799	0.7488832106173041	0.14279042360102953	0.5634007873866389	0.7621680752711233	0.209791848901068	0.8005184288993251	0.8011393334280563	0.2603527734838971	0.40232784514765424	-0.6798751673784179	0.3422780104211679	0.24925650729495397	-0.9296382241494628	0.3345127127205177	0.21871835077317592	-0.7615350867098475	0.4142853890552412	0.47994950081470356	-0.6364380456702241	0.49352112944412474	0.5109148398385577	-0.35553583952089973	0.39775678951111887	0.299784692137928	-0.448926478001203	0.3153594391373393	0.19576487534692366	-0.5289165108345405	0.330421797981337	0.18360852219491164	-0.5304038213112583	0.3452795841790789	0.19709293536139919	-0.49649995153814536	0.08745915587538486	0.45050043754896607	-0.6679597451894224	0.005575530087791224	0.5010817479010719	-0.39145031209741404	0.03235709265284477	0.49738443915798275	-0.11958490879204697	0.07578985148635288	0.46437454942459294	-0.02704287054489086	0.059901500999821174	0.4826669772396296	0.015188435469410112	0.014962494915841807	0.5137343124589256	0.003369603601929854
257	5.840909090909091	0.32060245505821666	0.5912786669896027	-0.15275130595628011	0.3522094637661986	0.6186773655105513	0.28273743250396827	0.3842780824438196	0.7215115234039955	0.7127602962288352	0.33074879972160326	0.5186876547813214	0.7480686240645396	0.40642442335342205	0.5192349637405496	0.7326696677051946	0.35890077113470464	0.8275394036160405	0.7827059263528414	0.11860784664023793	0.5614513539395998	-0.14941075468504303	0.15345159894473973	0.6064968223224589	0.30059937097094475	0.1885656341531547	0.7170818462173222	0.7221143732465372	0.19759352193924004	0.522943117088834	0.7536469392427027	0.14279604838656462	0.5636488255880531	0.7623080705190004	0.209816916041812	0.8004078922510783	0.8009865736799939	0.25988452489354796	0.4260341494286112	-0.6798368886876222	0.34121650071385873	0.24956375628702215	-0.9361561552246226	0.3267539666446035	0.2194055944934445	-0.767128075270829	0.4174961238838031	0.480890380536978	-0.6440588249379655	0.49007627013635285	0.5373646618282454	-0.35241273058320083	0.3995374905696251	0.3025445812950924	-0.4412911344478882	0.313767617785118	0.20773411630126487	-0.5134063107735519	0.3171915576093985	0.19670422856778108	-0.512074486698368	0.32362746759565675	0.24292530850693936	-0.4617100786307022	0.08729784256137092	0.4505860882119776	-0.66800176361012	0.005484972274950478	0.5009829458915959	-0.3877344726017083	0.03267577630269612	0.49691837603448913	-0.11966898592990183	0.08044200264912081	0.45090298933165335	-0.030730056683800126	0.06009051446316453	0.48196610846078675	0.014733839157670698	0.020043257168379267	0.5012390201626102	0.00012139382765902346
